<svg width="60" height="60" viewBox="0 0 60 60" fill="none" xmlns="http://www.w3.org/2000/svg">
<rect x="1.04904e-05" width="60" height="60" rx="16" fill="#FFDDB5"/>
<path fill-rule="evenodd" clip-rule="evenodd" d="M16.1072 29.5081C18.4556 24.3739 23.6644 20.9995 29.5 20.9995C35.3357 20.9995 40.5444 24.3739 42.8928 29.5081C43.0358 29.8207 43.0358 30.1783 42.8928 30.4909C40.5444 35.6252 35.3357 38.9995 29.5 38.9995C23.6644 38.9995 18.4556 35.6252 16.1072 30.4909C15.9643 30.1783 15.9643 29.8207 16.1072 29.5081ZM29.5008 35.9995C32.8774 35.9995 35.6147 33.3132 35.6147 29.9995C35.6147 26.6858 32.8774 23.9995 29.5008 23.9995C26.1241 23.9995 23.3869 26.6858 23.3869 29.9995C23.3869 33.3132 26.1241 35.9995 29.5008 35.9995ZM33.1696 29.9995C33.1696 31.9877 31.5273 33.5995 29.5013 33.5995C27.4753 33.5995 25.833 31.9877 25.833 29.9995C25.833 28.0113 27.4753 26.3995 29.5013 26.3995C31.5273 26.3995 33.1696 28.0113 33.1696 29.9995Z" fill="url(#paint0_linear_4_46)"/>
<path fill-rule="evenodd" clip-rule="evenodd" d="M16.1072 29.5081C18.4556 24.3739 23.6644 20.9995 29.5 20.9995C35.3357 20.9995 40.5444 24.3739 42.8928 29.5081C43.0358 29.8207 43.0358 30.1783 42.8928 30.4909C40.5444 35.6252 35.3357 38.9995 29.5 38.9995C23.6644 38.9995 18.4556 35.6252 16.1072 30.4909C15.9643 30.1783 15.9643 29.8207 16.1072 29.5081ZM29.5008 35.9995C32.8774 35.9995 35.6147 33.3132 35.6147 29.9995C35.6147 26.6858 32.8774 23.9995 29.5008 23.9995C26.1241 23.9995 23.3869 26.6858 23.3869 29.9995C23.3869 33.3132 26.1241 35.9995 29.5008 35.9995ZM33.1696 29.9995C33.1696 31.9877 31.5273 33.5995 29.5013 33.5995C27.4753 33.5995 25.833 31.9877 25.833 29.9995C25.833 28.0113 27.4753 26.3995 29.5013 26.3995C31.5273 26.3995 33.1696 28.0113 33.1696 29.9995Z" fill="url(#paint1_linear_4_46)"/>
<path fill-rule="evenodd" clip-rule="evenodd" d="M16.1072 29.5081C18.4556 24.3739 23.6644 20.9995 29.5 20.9995C35.3357 20.9995 40.5444 24.3739 42.8928 29.5081C43.0358 29.8207 43.0358 30.1783 42.8928 30.4909C40.5444 35.6252 35.3357 38.9995 29.5 38.9995C23.6644 38.9995 18.4556 35.6252 16.1072 30.4909C15.9643 30.1783 15.9643 29.8207 16.1072 29.5081ZM29.5008 35.9995C32.8774 35.9995 35.6147 33.3132 35.6147 29.9995C35.6147 26.6858 32.8774 23.9995 29.5008 23.9995C26.1241 23.9995 23.3869 26.6858 23.3869 29.9995C23.3869 33.3132 26.1241 35.9995 29.5008 35.9995ZM33.1696 29.9995C33.1696 31.9877 31.5273 33.5995 29.5013 33.5995C27.4753 33.5995 25.833 31.9877 25.833 29.9995C25.833 28.0113 27.4753 26.3995 29.5013 26.3995C31.5273 26.3995 33.1696 28.0113 33.1696 29.9995Z" fill="#CA774E"/>
<defs>
<linearGradient id="paint0_linear_4_46" x1="17.8128" y1="37.8268" x2="34.106" y2="16.6704" gradientUnits="userSpaceOnUse">
<stop stop-color="#FFDD55"/>
<stop offset="0.5" stop-color="#FF543E"/>
<stop offset="1" stop-color="#C837AB"/>
</linearGradient>
<linearGradient id="paint1_linear_4_46" x1="29.5" y1="20.9995" x2="29.5" y2="38.9995" gradientUnits="userSpaceOnUse">
<stop stop-color="#4799EA"/>
<stop offset="1" stop-color="#136FC9"/>
</linearGradient>
</defs>
</svg>
