<svg width="60" height="60" viewBox="0 0 60 60" fill="none" xmlns="http://www.w3.org/2000/svg">
<rect width="60" height="60" rx="16" fill="url(#paint0_linear_4_52)"/>
<path d="M30.0006 7.52169C20.7846 7.52169 12.0331 6.70252 8.69039 15.2746C7.30964 18.8151 7.51015 23.4131 7.51015 29.9968C7.51015 35.7741 7.32487 41.204 8.69038 44.7165C12.0255 53.2937 20.848 52.472 29.9955 52.472C38.8206 52.472 47.9198 53.3901 51.3031 44.7165C52.6864 41.1406 52.4833 36.6111 52.4833 29.9968C52.4833 21.2168 52.9681 15.5485 48.7066 11.2929C44.3918 6.9815 38.5566 7.52169 29.9904 7.52169L30.0006 7.52169ZM27.9853 11.5719C47.2091 11.5415 49.6559 9.40604 48.3056 39.0711C47.8259 49.5631 39.8307 48.4116 30.0031 48.4116C12.0839 48.4116 11.5686 47.8993 11.5686 29.9867C11.5686 11.8661 12.99 11.582 27.9853 11.5668L27.9853 11.5719ZM42.0059 15.3025C40.516 15.3025 39.3079 16.5097 39.3079 17.9984C39.3079 19.4871 40.516 20.6943 42.0059 20.6943C43.4958 20.6943 44.704 19.4871 44.704 17.9984C44.704 16.5097 43.4958 15.3025 42.0059 15.3025V15.3025ZM30.0006 18.4549C23.6222 18.4549 18.452 23.6236 18.452 29.9968C18.452 36.3701 23.6222 41.5362 30.0005 41.5362C36.3789 41.5362 41.5465 36.3701 41.5465 29.9968C41.5465 23.6236 36.3789 18.4549 30.0006 18.4549V18.4549ZM30.0006 22.5051C39.912 22.5051 39.9247 37.4886 30.0006 37.4886C20.0917 37.4886 20.0765 22.5051 30.0006 22.5051Z" fill="white"/>
<defs>
<linearGradient id="paint0_linear_4_52" x1="4.0285" y1="56.091" x2="59.6226" y2="7.96552" gradientUnits="userSpaceOnUse">
<stop stop-color="#FFDD55"/>
<stop offset="0.5" stop-color="#FF543E"/>
<stop offset="1" stop-color="#C837AB"/>
</linearGradient>
</defs>
</svg>
