<svg width="60" height="60" viewBox="0 0 60 60" fill="none" xmlns="http://www.w3.org/2000/svg">
<rect x="1.14441e-05" width="60" height="60" rx="16" fill="#43DA64"/>
<path fill-rule="evenodd" clip-rule="evenodd" d="M23.7006 39.1664L19.7414 41.1199C18.7102 41.6288 17.6162 40.5492 18.1318 39.5315L19.8554 36.1296C19.6496 35.8394 19.46 35.5346 19.2871 35.2156C18.4506 33.6721 18.0051 31.8147 18.0051 29.5508L18.0051 29.2602C18.0051 26.9963 18.4506 25.1389 19.2871 23.5954C20.1236 22.0519 21.3511 20.8406 22.9152 20.0151C24.4793 19.1896 26.3615 18.75 28.6556 18.75L31.3495 18.75C33.6437 18.75 35.5258 19.1896 37.0899 20.0151C38.654 20.8406 39.8815 22.0519 40.718 23.5954C41.5545 25.1389 42 26.9963 42 29.2602L42 29.5508C42 31.8147 41.5545 33.6721 40.718 35.2156C39.8815 36.7591 38.654 37.9704 37.0899 38.7959C35.5258 39.6214 33.6437 40.061 31.3495 40.061L28.6556 40.061C26.733 40.061 25.0998 39.7523 23.7006 39.1664V39.1664Z" fill="white"/>
</svg>
